<?xml version="1.0" encoding="utf-8"?>
<svg xmlns="http://www.w3.org/2000/svg" height="512pt" version="1.1" viewBox="0 0 512 512" width="512pt">
<path d="M 0.00 0.00 L 512.00 0.00 L 512.00 512.00 L 0.00 512.00 L 0.00 0.00 Z" fill="transparent" opacity="1.00" stroke="transparent" stroke-width="0.25"/>
<path d="M 191.18 66.84 C 211.90 59.41 234.07 56.69 256.00 56.75 C 279.66 56.80 303.46 60.56 325.50 69.37 C 363.14 84.75 396.11 111.50 418.73 145.31 C 432.61 166.15 443.91 189.08 449.06 213.71 C 454.59 238.35 455.17 264.05 451.26 288.98 C 448.84 306.18 444.00 323.06 436.74 338.84 C 425.13 364.26 408.73 387.71 387.83 406.34 C 374.62 418.48 359.56 428.51 343.67 436.78 C 306.67 455.20 263.91 461.06 223.16 454.81 C 176.98 448.16 134.07 423.37 103.92 387.96 C 84.82 365.93 69.81 340.00 62.22 311.75 C 49.28 267.78 53.41 219.46 71.83 177.64 C 81.93 154.99 95.92 134.03 113.19 116.21 C 134.68 93.77 161.85 76.96 191.18 66.84 Z" fill="#305a11" opacity="1.00" stroke="#305a11" stroke-width="0.25"/>
<path d="M 226.82 120.97 C 245.83 110.61 269.84 112.37 288.64 122.32 C 312.88 122.53 337.12 122.08 361.36 122.54 C 367.48 126.53 367.44 136.48 361.63 140.72 C 359.89 141.54 358.00 141.83 356.10 141.77 C 287.96 141.73 219.83 141.86 151.69 141.71 C 144.20 141.47 140.71 131.62 144.97 125.97 C 146.59 123.79 149.15 122.11 151.96 122.39 C 175.31 122.42 198.66 122.28 222.00 122.43 C 223.76 122.62 225.31 121.73 226.82 120.97 Z" fill="#ffffff" opacity="1.00" stroke="#ffffff" stroke-width="0.25"/>
<path d="M 225.82 122.23 C 232.35 120.64 238.35 117.21 245.10 116.43 C 254.70 115.30 264.67 115.16 273.98 118.10 C 278.81 119.40 283.26 122.07 288.39 122.17 C 267.54 122.68 246.67 122.64 225.82 122.23 Z" fill="#3a6720" opacity="1.00" stroke="#3a6720" stroke-width="0.25"/>
<path d="M 356.10 141.77 C 358.00 141.83 359.89 141.54 361.63 140.72 L 363.19 140.86 C 361.33 144.58 356.60 143.64 353.20 144.25 C 352.83 152.16 353.22 160.09 353.13 168.01 C 353.19 169.56 352.58 171.00 351.98 172.39 C 351.50 163.95 352.00 155.50 351.60 147.07 L 350.71 147.11 C 286.07 147.24 221.42 147.07 156.78 147.20 C 156.75 156.93 156.74 166.66 156.77 176.39 C 156.74 215.15 156.68 253.92 156.78 292.68 C 156.36 292.47 155.53 292.04 155.11 291.83 C 154.75 244.22 154.91 196.59 155.02 148.98 C 154.71 146.84 156.78 145.80 158.02 144.46 C 155.85 143.68 153.73 142.78 151.69 141.71 C 219.83 141.86 287.96 141.73 356.10 141.77 Z" fill="#2d5113" opacity="1.00" stroke="#2d5113" stroke-width="0.25"/>
<path d="M 156.78 147.20 C 221.42 147.07 286.07 147.24 350.71 147.11 C 349.43 148.25 348.44 149.65 347.80 151.24 C 285.63 151.47 223.47 151.37 161.30 151.24 C 159.83 149.85 158.31 148.51 156.78 147.20 Z" fill="#d2d9c9" opacity="1.00" stroke="#d2d9c9" stroke-width="0.25"/>
<path d="M 350.71 147.11 L 351.60 147.07 C 352.00 155.50 351.50 163.95 351.98 172.39 C 352.15 175.37 352.23 178.36 351.92 181.34 C 351.45 178.77 350.87 176.23 350.30 173.69 C 347.92 179.86 349.34 186.59 349.00 193.02 C 348.60 204.68 348.92 216.34 348.88 227.99 C 348.47 242.66 349.37 257.33 348.83 271.99 C 348.59 277.63 348.93 283.27 349.04 288.90 L 347.85 288.89 C 348.02 243.01 347.92 197.12 347.80 151.24 C 348.44 149.65 349.43 148.25 350.71 147.11 Z" fill="#e2e3de" opacity="1.00" stroke="#e2e3de" stroke-width="0.25"/>
<path d="M 156.78 147.20 C 158.31 148.51 159.83 149.85 161.30 151.24 C 160.97 159.62 161.28 168.01 161.14 176.40 C 160.52 174.58 159.78 172.81 159.05 171.04 C 158.25 172.80 157.45 174.57 156.77 176.39 C 156.74 166.66 156.75 156.93 156.78 147.20 Z" fill="#e7eae3" opacity="1.00" stroke="#e7eae3" stroke-width="0.25"/>
<path d="M 161.30 151.24 C 223.47 151.37 285.63 151.47 347.80 151.24 C 347.92 197.12 348.02 243.01 347.85 288.89 C 335.23 288.91 322.62 289.43 310.00 288.95 C 297.66 288.62 285.32 289.46 272.98 288.98 C 246.32 289.24 219.66 289.12 193.00 288.89 C 182.24 288.89 171.46 289.41 160.71 288.71 C 160.92 287.15 161.12 285.58 161.17 284.01 C 161.17 248.14 161.14 212.27 161.14 176.40 C 161.28 168.01 160.97 159.62 161.30 151.24 Z" fill="#2f5a11" opacity="1.00" stroke="#2f5a11" stroke-width="0.25"/>
<path d="M 156.77 176.39 C 157.45 174.57 158.25 172.80 159.05 171.04 C 159.78 172.81 160.52 174.58 161.14 176.40 C 161.14 212.27 161.17 248.14 161.17 284.01 C 161.12 285.58 160.92 287.15 160.71 288.71 C 171.46 289.41 182.24 288.89 193.00 288.89 C 219.66 289.12 246.32 289.24 272.98 288.98 C 285.32 289.46 297.66 288.62 310.00 288.95 C 322.62 289.43 335.23 288.91 347.85 288.89 L 349.04 288.90 C 348.93 283.27 348.59 277.63 348.83 271.99 C 349.37 257.33 348.47 242.66 348.88 227.99 C 348.92 216.34 348.60 204.68 349.00 193.02 C 349.34 186.59 347.92 179.86 350.30 173.69 C 350.87 176.23 351.45 178.77 351.92 181.34 C 352.41 204.53 351.97 227.77 352.15 250.98 C 352.33 264.91 351.58 278.83 351.75 292.76 C 286.76 292.72 221.77 292.91 156.78 292.68 C 156.68 253.92 156.74 215.15 156.77 176.39 Z" fill="#fbfff8" opacity="1.00" stroke="#fbfff8" stroke-width="0.25"/>
<path d="M 142.62 300.46 C 147.03 299.60 151.51 299.04 155.99 298.81 C 219.65 298.83 283.32 298.84 346.98 298.81 C 353.48 298.74 360.06 298.83 366.38 300.57 C 366.07 306.50 366.32 312.45 365.96 318.38 C 352.81 318.29 339.65 318.12 326.51 318.47 C 336.98 348.01 345.03 378.39 354.58 408.21 C 353.25 408.61 351.94 409.07 350.66 409.61 C 349.93 408.50 349.21 407.38 348.78 406.13 C 338.99 378.70 331.85 350.41 322.00 323.00 C 321.59 321.50 321.29 319.95 321.02 318.42 C 306.02 318.10 291.02 318.37 276.01 318.28 C 269.31 318.37 262.60 318.05 255.91 318.59 C 233.27 317.90 210.59 318.57 187.95 318.22 C 186.03 318.04 184.10 318.15 182.18 318.32 C 169.03 318.39 155.88 318.23 142.73 318.34 C 142.68 312.38 142.70 306.42 142.62 300.46 Z" fill="#fefefe" opacity="1.00" stroke="#fefefe" stroke-width="0.25"/>
<path d="M 182.18 318.32 C 184.10 318.15 186.03 318.04 187.95 318.22 C 185.24 328.26 181.36 337.96 178.41 347.94 C 173.86 363.17 168.79 378.24 164.16 393.44 C 162.18 398.84 160.66 404.42 158.28 409.67 C 156.96 409.42 155.65 409.18 154.33 408.94 C 158.52 391.49 164.72 374.63 169.66 357.40 C 173.36 345.59 176.96 333.75 180.58 321.91 C 180.95 320.65 181.60 319.49 182.18 318.32 Z" fill="#fbfdf8" opacity="1.00" stroke="#fbfdf8" stroke-width="0.25"/>
<path d="M 253.35 319.19 C 254.41 319.21 256.54 319.26 257.60 319.28 C 258.13 345.71 257.69 372.15 257.62 398.58 C 256.56 398.59 254.45 398.61 253.39 398.62 C 253.20 372.14 253.28 345.66 253.35 319.19 Z" fill="#b4b8b4" opacity="1.00" stroke="#b4b8b4" stroke-width="0.25"/>
</svg>